<?xml version="1.0" encoding="utf-8"?>
<!-- Generator: Adobe Illustrator 16.0.0, SVG Export Plug-In . SVG Version: 6.00 Build 0)  -->
<!DOCTYPE svg PUBLIC "-//W3C//DTD SVG 1.1//EN" "http://www.w3.org/Graphics/SVG/1.1/DTD/svg11.dtd">
<svg version="1.1" id="Layer_1" xmlns="http://www.w3.org/2000/svg" xmlns:xlink="http://www.w3.org/1999/xlink" x="0px" y="0px"
	 width="100px" height="100px" viewBox="0 0 100 100" enable-background="new 0 0 100 100" xml:space="preserve">
<g>
	<path fill="#FFC434" d="M41.055,39.181c-1.247-1.54-2.806-2.164-4.317-2.257c-1.594,0.01-3.227,0.667-4.553,2.245h-0.021
		c-0.785,0.902-1.462,2.102-1.906,3.549c-0.494,1.544-0.615,3.366-0.459,5.096c0.099,0.06,0.199,0.122,0.299,0.183
		c0.356,0.216,0.709,0.443,1.067,0.654c1.49,0.964,3.001,1.838,4.482,2.834c0.438-0.224,0.858-0.54,1.28-0.827
		c0.689-0.436,1.369-0.91,2.055-1.359c0.604-0.408,1.207-0.811,1.813-1.212c0.333-0.219,0.664-0.443,0.998-0.665
		c0.303-0.204,0.607-0.41,0.915-0.613c0.273-0.182,0.547-0.366,0.821-0.547C43.501,43.357,42.468,40.644,41.055,39.181z"/>
	<g>
		<path fill="#7FBA42" d="M58.567,40.059c1.03,3.385,2.098,6.689,3.13,10.066c-0.497-0.018-0.995,0.014-1.494-0.022
			c0.852,2.714,1.716,5.398,2.58,8.083c-0.489,0.001-0.977-0.003-1.465,0c0.678,1.943,1.341,3.918,2.021,5.856
			c-1.185,0.008-2.367,0.003-3.553,0.003c-0.002,1.354-0.037,2.707-0.051,4.058c-0.73-0.128-1.46-0.258-2.19-0.432
			c0-1.208,0-2.415,0-3.626c-1.23,0-2.462,0.005-3.694-0.003c0.736-2.058,1.512-4,2.248-6.059c-0.548,0.01-1.096,0.004-1.645,0.001
			c0.628-1.793,1.257-3.591,1.893-5.359c0.203-0.59,0.424-1.132,0.605-1.778c-0.501-0.203-0.999-0.468-1.497-0.679
			C56.491,46.793,57.535,43.437,58.567,40.059z"/>
	</g>
	<g>
		<path fill="#357B3C" d="M50.789,54.182c0.729-2.454,1.462-4.906,2.184-7.374c0.729,2.481,1.476,4.914,2.212,7.374
			c-0.356-0.014-0.715-0.006-1.072-0.005c0.233,0.774,0.476,1.52,0.703,2.3c-0.16,0.639-0.386,1.138-0.575,1.708
			c0.369,0,0.737,0,1.106,0c0.082,0.267,0.164,0.539,0.246,0.809c-0.139,0.37-0.279,0.739-0.418,1.103
			c-0.092-0.004-0.183-0.009-0.275-0.01c0.042,0.14,0.082,0.28,0.124,0.42c-0.48,1.254-0.945,2.554-1.418,3.831
			c0.814-0.009,1.631,0.004,2.447-0.009c0.109-0.008,0.223,0.022,0.328,0.107c-0.853,0.109-1.709,0.016-2.562,0.05
			c-0.007,0.729-0.01,1.458-0.013,2.188l-0.055-0.018c-0.498-0.146-0.997-0.299-1.492-0.481c0-0.563,0-1.127,0-1.691
			c-0.875,0.008-1.748-0.018-2.623,0.015c0.541-1.528,1.095-3.034,1.634-4.567c-0.392-0.001-0.784-0.001-1.173,0.002
			c0.576-1.745,1.171-3.441,1.751-5.184C51.501,54.502,51.141,54.404,50.789,54.182z"/>
		<path fill="#357B3C" d="M61.831,54.756c0.645-2.145,1.289-4.288,1.941-6.413c0.735,2.391,1.464,4.784,2.204,7.163
			c-0.36,0.008-0.719,0.007-1.08,0.001c0.61,1.913,1.213,3.841,1.813,5.781c-0.346,0.002-0.691,0-1.036,0
			c0.494,1.419,0.969,2.889,1.464,4.306c-0.838,0.009-1.675,0-2.514,0.006c-0.007,1.038-0.018,2.084-0.039,3.126
			c-0.232-0.018-0.466-0.018-0.699-0.025c-0.273-0.006-0.546-0.075-0.818-0.124c-0.003-0.994-0.002-1.986,0-2.977
			c-0.874-0.006-1.748,0.003-2.62-0.006c0.149-0.43,0.305-0.844,0.46-1.26c0.889,0.003,1.781-0.006,2.671,0.003
			c-0.632-1.802-1.255-3.636-1.88-5.46c0.046-0.167,0.098-0.319,0.15-0.476c0.378,0.024,0.756,0.015,1.133,0.007
			c-0.179-0.565-0.368-1.116-0.542-1.703c0.075-0.213,0.147-0.426,0.221-0.64c-0.17-0.114-0.352-0.108-0.514-0.293
			C62.023,55.473,61.924,55.117,61.831,54.756z"/>
	</g>
	<g>
		<path fill="#A2D0A4" d="M17.69,57.336"/>
	</g>
	<g>
		<path fill="#9CCA3D" d="M55.471,58.185c0.141-0.003,0.279-0.003,0.42,0.001c-0.075,0.211-0.149,0.416-0.226,0.624
			C55.601,58.601,55.536,58.393,55.471,58.185z"/>
	</g>
	<g>
		<path fill="#AFD480" d="M61.56,58.385c0.03-0.001,0.093-0.004,0.123-0.005c0.023,0.203-0.005,0.302-0.085,0.298
			C61.586,58.604,61.569,58.457,61.56,58.385z"/>
	</g>
	<g>
		<path fill="#5CBC7A" d="M8.435,59.059"/>
	</g>
	<g>
		<path fill="#87C440" d="M59.839,64.348c0.308-0.027,0.618-0.007,0.926-0.026c-0.033,0.105-0.101,0.315-0.136,0.419
			c-0.249-0.021-0.503,0.034-0.747-0.094L59.839,64.348z"/>
	</g>
	<g>
		<path fill="#8BC53F" d="M62.289,56.111c-0.057,0.211,0.072,0.514,0.139,0.325C62.483,56.216,62.354,55.925,62.289,56.111z"/>
		<path fill="#8BC53F" d="M88.435,59.786l0.004-0.038c-0.531-0.111-1.054-0.413-1.575-0.662l0.007-0.037
			c-0.876-0.35-1.738-0.956-2.603-1.498l0.001-0.03c-0.979-0.602-1.946-1.383-2.913-2.146c-1.187-0.969-2.363-2.036-3.537-3.108
			v-0.04c-0.998-0.885-1.974-1.95-2.966-2.896v-0.048c-0.818-0.798-1.618-1.723-2.431-2.563l0.002-0.036
			c-1.012-1.057-2.004-2.252-3.008-3.367c-0.936-1.14-1.88-2.229-2.813-3.378c-0.686-0.837-1.367-1.702-2.054-2.529l0.002-0.034
			c-1.126-1.345-2.225-2.861-3.345-4.225l-0.038,0.035l-0.006-0.11c-0.682-0.931-1.375-1.79-2.061-2.702
			c-0.516-0.617-1.012-1.414-1.546-1.879c-0.502,0.427-0.982,1.017-1.476,1.508c-1.132,1.197-2.265,2.38-3.393,3.596l-0.008,0.109
			l-0.038-0.035c-1.789,1.821-3.563,3.793-5.351,5.644v0.038c-0.745,0.737-1.477,1.578-2.221,2.336v0.025
			c-1.014,1.044-2.018,2.146-3.028,3.213c-0.216,0.23-0.431,0.462-0.643,0.689c-0.241,0.254-0.481,0.512-0.719,0.77
			c-0.261,0.277-0.521,0.56-0.783,0.833c-0.473,0.505-0.949,1.011-1.422,1.521c-0.538,0.564-1.072,1.16-1.611,1.706
			c-0.333,0.361-0.661,0.759-1.004,1.039c-1.163-1.251-2.349-2.346-3.519-3.558c-0.279-0.267-0.557-0.55-0.835-0.819
			c-0.081-0.08-0.159-0.153-0.236-0.232c-1.223-1.237-2.453-2.445-3.678-3.681c-0.303,0.26-0.604,0.53-0.909,0.752l0.001,0.042
			c-1.106,0.838-2.194,1.849-3.301,2.689l0.001,0.055c-0.917,0.679-1.819,1.524-2.737,2.225l0.047,0.023
			c-0.511,0.339-1.012,0.792-1.512,1.231c-0.746,0.546-1.472,1.271-2.219,1.782l0.009,0.043c-0.911,0.719-1.813,1.537-2.726,2.228
			v0.055c-1.896,1.498-3.776,3.161-5.673,4.658c0.093,0.045,0.189,0.059,0.282-0.015c1.808-1.023,3.615-2.043,5.421-3.056
			c0.93-0.519,1.859-1.046,2.786-1.563c0.693-0.375,1.384-0.796,2.075-1.158c0.605-0.364,1.213-0.678,1.817-1.033
			c0.818-0.448,1.634-0.923,2.451-1.373c0.219-0.117,0.432-0.266,0.653-0.358c-0.209,0.313-0.441,0.479-0.656,0.756l-0.011,0.111
			l-0.037-0.037c-0.898,0.908-1.783,1.941-2.678,2.877v0.027c-0.73,0.748-1.447,1.569-2.172,2.344
			c-0.24,0.261-0.485,0.489-0.713,0.825c0.103-0.002,0.202-0.025,0.303-0.065c0.856-0.358,1.72-0.555,2.582-0.75
			c0.434-0.033,0.868-0.15,1.301-0.216c0.49,0.027,0.977-0.19,1.467-0.179c0.465,0.014,0.927-0.113,1.392-0.158
			c0.622-0.003,1.244-0.046,1.867-0.087c1.77-0.196,3.542-0.037,5.314-0.122c1.274,0.065,2.551-0.013,3.826,0.038
			c0.417,0.013,0.835,0.084,1.253,0.079c0.483-0.462,0.944-1.094,1.418-1.625c0.73-0.851,1.457-1.72,2.187-2.569
			c1.468-1.731,2.935-3.451,4.402-5.185c0.729-0.841,1.456-1.715,2.186-2.563c0.996-1.165,1.989-2.365,2.988-3.506
			c-0.651,1.353-1.303,2.711-1.965,4.026l0.001,0.05c-1.081,2.15-2.144,4.379-3.214,6.567c-0.661,1.345-1.319,2.704-1.978,4.052
			c-0.583,1.235-1.198,2.374-1.763,3.679c1.233,0.729,2.469,1.402,3.717,1.89l-0.002,0.046c1.077,0.411,2.152,0.854,3.23,1.223
			c0.637,0.171,1.264,0.445,1.901,0.583c0.268-0.765,0.536-1.526,0.807-2.281c-0.384-0.003-0.769,0-1.155,0
			c0.593-1.8,1.203-3.551,1.802-5.331c-0.346-0.223-0.7-0.333-1.048-0.555c0.7-2.378,1.407-4.736,2.104-7.113
			c0.084-0.28,0.171-0.561,0.256-0.838c0.803,2.663,1.601,5.333,2.407,7.988c-0.358,0.004-0.718,0-1.075,0
			c0.205,0.627,0.396,1.286,0.593,1.923c0.615-1.779,1.27-3.459,1.857-5.305c-0.494-0.175-0.978-0.467-1.47-0.655
			c0.303-1.107,0.645-2.128,0.968-3.197c0.77-2.496,1.537-4.996,2.31-7.488c0.18,0.538,0.344,1.106,0.519,1.649
			c0.692,2.18,1.365,4.409,2.066,6.565c0.241,0.878,0.528,1.653,0.771,2.528c-0.495-0.031-0.993-0.002-1.488-0.017
			c0.429,1.418,0.889,2.752,1.315,4.177c0.682-2.2,1.345-4.44,2.021-6.653c0.251,0.775,0.488,1.585,0.736,2.372
			c0.56,1.818,1.117,3.649,1.678,5.467c-0.355,0.004-0.712,0.004-1.068,0.004c0.47,1.461,0.919,2.98,1.399,4.417l-0.001,0.028
			c0.145,0.468,0.29,0.944,0.439,1.41c-0.343-0.017-0.687-0.015-1.031-0.003c0.438,1.245,0.857,2.543,1.29,3.801
			c0.74,0.015,1.478,0.057,2.217,0.115c1.271,0.071,2.541,0.08,3.812,0.025c0.533,0.059,1.065-0.039,1.598-0.067
			c0.993-0.106,1.988-0.002,2.979-0.229c1.182-0.016,2.359-0.275,3.541-0.401c0.94-0.226,1.887-0.354,2.829-0.639
			c0.862-0.172,1.72-0.486,2.579-0.787c0.544-0.195,1.085-0.442,1.627-0.701c1.075-0.554,2.161-1.146,3.177-2.301
			C90.517,60.467,89.472,60.177,88.435,59.786z"/>
	</g>
	<path fill="#357B3C" d="M82.481,67.285c-1.555,0.317-3.107,0.74-4.666,0.897c-0.584,0.197-1.173,0.131-1.757,0.299
		c-0.533,0.058-1.064,0.063-1.597,0.195c-0.683,0.023-1.364,0.062-2.046,0.149c-0.763,0.105-1.527-0.009-2.29,0.068
		c-1.847-0.023-3.695,0.058-5.542-0.169c-0.232-0.018-0.466-0.018-0.699-0.025c-0.273-0.006-0.546-0.075-0.818-0.124
		c-1.112-0.092-2.221-0.285-3.331-0.475c-0.73-0.128-1.46-0.258-2.19-0.432c-0.104-0.021-0.209-0.044-0.312-0.069
		c-1.143-0.279-2.287-0.561-3.427-0.927l-0.055-0.018c-0.498-0.146-0.997-0.299-1.492-0.481c-0.563-0.187-1.122-0.4-1.684-0.587
		c-1.516-0.589-3.02-1.387-4.535-1.978c-1.387-0.554-2.778-1.078-4.17-1.528c-0.838-0.285-1.681-0.522-2.521-0.794
		c-0.921-0.224-1.842-0.509-2.766-0.701c-1.964-0.463-3.927-0.877-5.897-1.054c-0.536-0.146-1.075-0.136-1.616-0.165
		c-0.745-0.156-1.494-0.14-2.239-0.162c-0.705-0.018-1.41-0.012-2.117-0.014c-0.972,0.034-1.947-0.021-2.917,0.176
		c-0.416,0.029-0.833,0.013-1.245,0.117c-1.643,0.221-3.28,0.568-4.916,1.097c-0.58,0.162-1.158,0.403-1.74,0.611
		c-0.826,0.334-1.649,0.705-2.468,1.135c-0.807,0.408-1.603,0.95-2.406,1.421l0.002,0.06c-1.38,0.897-2.74,2.053-4.06,3.487
		c1.353-0.571,2.716-0.948,4.08-1.223c0.804-0.244,1.615-0.299,2.421-0.478c0.396,0.051,0.788-0.157,1.182-0.163
		c0.414-0.017,0.828-0.048,1.242-0.16c0.58-0.012,1.166-0.042,1.747-0.091c1.668-0.183,3.338-0.082,5.005-0.094
		c0.963,0.003,1.925,0.176,2.888,0.169c0.48-0.024,0.961,0.159,1.444,0.153c0.651,0.002,1.3,0.203,1.955,0.214
		c1.252,0.213,2.506,0.309,3.757,0.635c1.969,0.285,3.931,0.827,5.896,1.275c0.9,0.314,1.808,0.475,2.708,0.808
		c0.866,0.212,1.728,0.521,2.591,0.79c1.389,0.46,2.778,0.972,4.164,1.472c1.509,0.609,3.017,1.231,4.535,1.592
		c1.057,0.338,2.116,0.594,3.175,0.818c1.158,0.293,2.32,0.562,3.48,0.69c0.448,0.21,0.905,0.122,1.354,0.281
		c0.337,0.085,0.676,0.04,1.013,0.133c0.472,0.149,0.951,0.063,1.425,0.195c0.453,0.117,0.909,0.032,1.363,0.131
		c0.498,0.092,0.999,0.122,1.499,0.123c1.77,0.165,3.546,0.212,5.316,0.13c0.528,0.044,1.056,0.011,1.582-0.053
		c0.771-0.134,1.543-0.023,2.313-0.217c1.573-0.12,3.146-0.445,4.717-0.79c2.919-0.721,5.836-1.78,8.698-3.528
		c2.599-1.622,5.178-3.72,7.561-7.071C90.244,65.044,86.366,66.285,82.481,67.285z"/>
</g>
</svg>
